<?xml version="1.0" standalone="no"?>
<!DOCTYPE svg PUBLIC "-//W3C//DTD SVG 20010904//EN"
 "http://www.w3.org/TR/2001/REC-SVG-20010904/DTD/svg10.dtd">
<svg version="1.0" xmlns="http://www.w3.org/2000/svg"
 width="800.000000pt" height="253.000000pt" viewBox="0 0 800.000000 253.000000"
 preserveAspectRatio="xMidYMid meet">
<metadata>
Created by potrace 1.16, written by Peter Selinger 2001-2019
</metadata>
<g transform="translate(0.000000,253.000000) scale(0.100000,-0.100000)"
fill="#000000" stroke="none">
<path d="M0 1265 l0 -1265 4000 0 4000 0 0 1265 0 1265 -4000 0 -4000 0 0
-1265z m6745 870 c34 -17 46 -33 82 -105 35 -71 42 -95 42 -146 1 -50 -4 -68
-28 -106 -16 -25 -34 -49 -40 -52 -6 -4 -11 -16 -11 -27 0 -12 -7 -19 -19 -19
-10 0 -24 -6 -30 -14 -39 -47 -213 -126 -333 -150 -118 -24 -239 -17 -259 16
-5 7 -9 9 -9 4 0 -24 -45 36 -77 104 -46 95 -52 183 -15 241 70 114 259 231
427 266 89 18 221 12 270 -12z m820 4 c56 -21 180 -123 170 -139 -3 -4 2 -11
11 -14 8 -3 12 -10 9 -16 -3 -5 -2 -10 3 -10 18 0 52 -129 52 -199 0 -128 -53
-227 -151 -280 -156 -84 -161 -86 -239 -86 -41 0 -87 3 -101 7 -23 7 -28 4
-41 -31 -13 -32 -13 -41 -2 -56 22 -29 18 -118 -5 -139 -10 -10 -72 -33 -138
-52 -65 -20 -173 -63 -242 -97 -100 -49 -128 -68 -148 -99 -14 -21 -30 -38
-36 -38 -6 0 -8 -3 -4 -6 3 -3 -14 -34 -37 -67 -24 -34 -67 -97 -96 -139 -29
-43 -57 -78 -62 -78 -5 0 -7 -3 -4 -8 2 -4 -11 -29 -31 -56 -35 -48 -35 -48
-80 -42 -98 13 -229 119 -285 230 -32 63 -58 166 -58 232 l0 42 215 108 c118
59 215 114 215 120 0 7 7 20 16 28 8 9 13 16 10 16 -8 0 86 184 96 188 4 2 6
8 2 13 -3 5 0 9 6 9 6 0 9 4 6 9 -10 15 38 73 79 95 22 11 42 23 45 26 3 3 34
20 70 38 36 18 104 54 153 79 l87 45 0 49 c0 59 25 138 50 160 11 9 17 19 14
21 -9 10 103 83 151 99 6 2 18 10 28 19 49 43 184 52 272 19z m-1055 -648 c20
-38 12 -57 -29 -69 -21 -7 -50 -12 -65 -12 -23 0 -26 4 -26 33 0 27 5 34 38
49 50 22 69 22 82 -1z m-400 -2 c0 -5 21 -20 47 -31 44 -20 52 -20 126 -8 87
14 100 9 95 -40 -3 -19 -11 -26 -43 -33 -56 -12 -210 -4 -229 12 -9 8 -16 10
-16 5 0 -4 -13 5 -30 21 -28 27 -39 63 -23 78 11 11 73 8 73 -4z m1634 -25
c25 -10 19 -48 -14 -79 -16 -16 -30 -25 -30 -20 0 5 -7 -1 -16 -13 -12 -17
-24 -22 -47 -20 -29 3 -32 6 -32 36 0 17 5 32 10 33 6 0 14 7 18 15 5 8 12 12
16 10 4 -3 14 6 21 19 13 25 41 32 74 19z m-154 -135 c0 -19 -7 -37 -17 -45
-25 -19 -70 -17 -77 2 -18 47 4 73 62 74 29 0 32 -3 32 -31z m24 -180 c66 -18
104 -50 132 -108 15 -30 24 -64 21 -77 -2 -15 1 -24 8 -24 16 0 35 -44 35 -79
0 -29 -15 -41 -50 -41 -30 0 -57 109 -27 111 6 1 1 4 -13 8 -16 4 -29 18 -35
36 -22 64 -55 91 -128 103 -34 6 -43 12 -45 30 -8 53 20 64 102 41z m-66 -94
c50 -23 55 -29 88 -102 19 -43 39 -86 44 -95 17 -30 11 -130 -10 -177 -34 -74
-206 -224 -257 -224 -7 0 -13 -4 -13 -9 0 -4 -5 -8 -12 -8 -6 0 -32 -10 -57
-22 -25 -12 -62 -22 -82 -23 -21 0 -35 -3 -33 -6 11 -19 -187 -25 -251 -8 -71
19 -99 49 -144 156 -25 60 -41 114 -41 138 0 65 49 154 115 211 31 27 61 48
67 46 5 -1 7 2 4 7 -9 14 169 98 254 120 49 13 109 20 175 20 86 1 107 -3 153
-24z m-614 -71 c9 -25 7 -56 -4 -49 -5 3 -10 -1 -10 -9 0 -11 -9 -16 -30 -16
-23 0 -30 -4 -30 -20 0 -10 -9 -24 -20 -30 -11 -6 -20 -17 -20 -24 0 -8 -7
-16 -14 -19 -18 -7 -47 -61 -56 -102 -5 -26 -11 -30 -43 -33 -36 -3 -37 -2
-37 30 1 18 7 50 14 71 16 43 66 120 74 112 3 -3 10 5 16 18 7 13 23 23 39 25
17 2 27 9 27 19 0 37 81 60 94 27z m876 -321 c0 -38 -38 -101 -99 -165 -56
-59 -81 -69 -107 -44 -24 25 -16 45 44 104 33 31 65 73 72 93 12 33 17 37 52
37 34 1 38 -2 38 -25z m-1706 -25 c9 -12 16 -30 16 -40 0 -10 5 -18 11 -18 6
0 35 -22 64 -48 29 -27 78 -59 109 -72 39 -15 56 -28 56 -40 0 -69 -49 -67
-165 6 -69 43 -115 88 -115 113 0 16 -6 21 -25 21 -23 0 -25 4 -25 43 0 24 3
47 7 50 14 15 53 6 67 -15z m1471 -178 c-3 -5 -1 -10 4 -10 6 0 11 -11 11 -25
0 -41 -90 -75 -104 -39 -12 31 -6 49 22 66 30 18 77 24 67 8z"/>
<path d="M6403 2092 c-12 -8 -21 -97 -11 -107 3 -3 17 -1 31 6 22 10 25 17 24
60 -2 49 -13 60 -44 41z"/>
<path d="M6411 1936 c-24 -13 -25 -17 -25 -130 -1 -75 3 -116 10 -116 5 0 18
-18 28 -41 23 -51 33 -45 11 7 -14 35 -14 40 0 50 12 9 15 34 15 128 0 64 -3
116 -7 116 -5 -1 -19 -7 -32 -14z"/>
<path d="M6773 1899 c-11 -11 -6 -49 7 -49 11 0 19 36 11 49 -5 8 -10 8 -18 0z"/>
<path d="M6687 1811 c2 -2 -13 -15 -32 -28 -31 -21 -33 -26 -23 -48 14 -31 19
-31 57 1 36 30 37 35 14 61 -10 10 -17 17 -16 14z"/>
<path d="M6502 1698 l-42 -19 15 -29 c16 -30 16 -30 52 -15 49 21 49 21 32 54
l-14 28 -43 -19z"/>
<path d="M6313 1643 c-27 -5 -26 -5 -12 -37 9 -18 21 -25 49 -28 21 -2 36 0
34 4 -3 5 2 8 10 8 19 0 19 2 4 35 -11 25 -29 29 -85 18z"/>
<path d="M6166 1625 c6 -16 43 -40 50 -33 2 2 -3 14 -12 26 -17 25 -47 30 -38
7z"/>
<path d="M6403 1560 c-13 -5 -23 -12 -23 -15 0 -8 53 6 65 16 12 12 -13 11
-42 -1z"/>
<path d="M7420 2082 c0 -13 57 -30 71 -21 12 7 11 11 -1 19 -18 12 -70 13 -70
2z"/>
<path d="M7568 2006 c-16 -12 -15 -15 16 -45 29 -28 37 -31 55 -22 27 15 27
22 -7 54 -32 30 -40 32 -64 13z"/>
<path d="M7683 1868 c-18 -9 -21 -18 -20 -63 l2 -52 34 16 c31 15 33 18 28 55
-7 47 -16 57 -44 44z"/>
<path d="M7254 1785 c-45 -24 -85 -41 -88 -38 -3 4 -6 1 -6 -6 0 -7 -4 -10 -9
-7 -5 4 -11 2 -13 -3 -1 -5 -74 -46 -161 -91 -87 -45 -182 -95 -210 -110 -51
-26 -54 -31 -133 -184 -45 -86 -79 -156 -77 -156 3 0 -4 -12 -14 -26 -13 -17
-90 -61 -214 -124 -148 -73 -195 -102 -197 -117 -2 -11 6 -47 18 -79 12 -33
22 -63 23 -68 7 -32 143 -168 186 -186 28 -11 34 -10 51 5 11 10 20 22 20 27
0 14 57 88 64 83 3 -3 4 -2 1 1 -6 9 74 124 87 124 6 0 9 3 5 6 -3 4 18 42 48
86 30 44 55 84 55 89 0 19 280 147 390 179 116 32 153 52 135 69 -11 10 -105
20 -99 10 5 -9 -60 -19 -124 -19 -50 0 -121 24 -108 37 3 3 -2 12 -12 19 -9 7
-17 16 -18 21 0 4 -6 21 -13 38 -7 16 -10 37 -8 47 3 10 1 16 -4 12 -5 -3 -9
6 -9 20 0 21 18 35 119 95 65 39 125 72 132 73 7 2 22 11 33 20 10 10 23 15
28 12 4 -3 8 0 8 6 0 6 8 14 18 18 47 19 163 95 172 113 26 47 6 48 -76 4z"/>
<path d="M7703 1678 c-15 -7 -23 -20 -23 -35 0 -13 -4 -21 -10 -18 -6 4 -7 -1
-3 -11 6 -15 7 -15 20 2 15 20 45 74 41 73 -2 0 -13 -5 -25 -11z"/>
<path d="M6868 1639 c-31 -16 -59 -33 -63 -39 -8 -13 19 -3 75 28 54 31 54 31
49 36 -2 2 -30 -9 -61 -25z"/>
<path d="M7118 1547 c-11 -9 -14 -18 -8 -27 5 -8 6 -18 4 -22 -3 -4 -1 -8 5
-8 14 0 41 -53 41 -81 0 -11 -11 -30 -26 -41 -32 -26 -27 -30 18 -18 28 8 39
18 51 48 16 40 15 46 -28 115 -33 52 -33 52 -57 34z"/>
<path d="M6887 1469 c-33 -17 -36 -23 -31 -47 10 -45 44 -110 60 -116 12 -5
11 0 -4 22 -25 35 -45 98 -37 113 4 6 21 17 37 24 17 7 27 15 22 18 -5 3 -26
-4 -47 -14z"/>
<path d="M7007 1481 c-16 -6 -15 -10 9 -44 20 -31 28 -36 40 -27 23 20 -20 82
-49 71z"/>
<path d="M6910 1431 c-7 -14 -7 -22 0 -26 6 -4 8 -10 6 -14 -6 -9 52 -71 66
-71 10 0 6 9 -34 64 -16 22 -26 46 -24 53 8 20 -2 15 -14 -6z"/>
<path d="M6865 1069 c-67 -33 -97 -57 -53 -40 45 17 106 50 113 61 9 14 7 14
-60 -21z"/>
<path d="M6180 1410 c0 -5 7 -10 16 -10 8 0 12 5 9 10 -3 6 -10 10 -16 10 -5
0 -9 -4 -9 -10z"/>
<path d="M7193 1020 c-20 -8 -23 -17 -23 -65 0 -54 1 -55 29 -55 33 0 41 17
41 88 0 44 -6 48 -47 32z"/>
<path d="M7250 803 c0 -25 3 -43 6 -40 10 10 12 87 3 87 -5 0 -9 -21 -9 -47z"/>
<path d="M7587 778 c-11 -19 -15 -39 -11 -55 l7 -26 18 34 c32 59 19 104 -14
47z"/>
<path d="M7132 765 c0 -16 2 -22 5 -12 2 9 2 23 0 30 -3 6 -5 -1 -5 -18z"/>
<path d="M7170 625 c0 -56 2 -65 18 -65 11 0 24 -12 31 -26 15 -34 25 -26 12
9 -7 17 -7 28 -1 32 6 4 10 31 10 61 l0 54 -35 0 -35 0 0 -65z"/>
<path d="M7485 670 c-4 -6 -11 -7 -17 -4 -6 4 -8 2 -4 -4 3 -6 -3 -13 -14 -17
-20 -6 -25 -21 -14 -49 8 -22 20 -20 59 10 30 23 33 28 23 50 -12 26 -23 30
-33 14z"/>
<path d="M7330 581 c0 -5 -14 -14 -31 -20 -26 -9 -29 -14 -24 -33 12 -38 21
-41 64 -19 37 20 40 23 29 46 -11 24 -38 42 -38 26z"/>
<path d="M7118 513 c-16 -2 -28 -6 -28 -8 0 -18 37 -75 47 -75 8 0 12 4 9 9
-3 5 10 12 29 15 40 8 39 6 23 41 -11 25 -20 27 -80 18z"/>
<path d="M6941 494 c15 -18 69 -48 75 -41 18 18 -33 57 -73 57 -13 0 -13 -3
-2 -16z"/>
<path d="M7185 420 c-18 -8 -17 -9 7 -9 15 -1 30 4 33 9 7 12 -12 12 -40 0z"/>
<path d="M7664 548 l-19 -23 23 19 c12 11 22 21 22 23 0 8 -8 2 -26 -19z"/>
<path d="M6205 460 c3 -5 8 -10 11 -10 2 0 4 5 4 10 0 6 -5 10 -11 10 -5 0 -7
-4 -4 -10z"/>
</g>
</svg>
